/* XPM */
static const char *appicon_xpm[] = {
/* columns rows colors chars-per-pixel */
"48 48 49 1",
"  c #000000",
". c #060606",
"X c #070707",
"o c #0E0E0E",
"O c #171717",
"+ c #181818",
"@ c #2F2F2F",
"# c #353535",
"$ c #363636",
"% c #434343",
"& c #494949",
"* c #4F4F4F",
"= c #555555",
"- c #5A5A5A",
"; c #5E5E5E",
": c #636363",
"> c #676767",
", c #6F6F6F",
"< c #727272",
"1 c #747474",
"2 c #7D7D7D",
"3 c #828282",
"4 c #878787",
"5 c #8F8F8F",
"6 c #949494",
"7 c #979797",
"8 c #999999",
"9 c #9F9F9F",
"0 c #A3A3A3",
"q c #A7A7A7",
"w c #ADADAD",
"e c #B3B3B3",
"r c #B4B4B4",
"t c #BBBBBB",
"y c #BDBDBD",
"u c #C2C2C2",
"i c #C7C7C7",
"p c #CECECE",
"a c #D0D0D0",
"s c #D5D5D5",
"d c #DFDFDF",
"f c #E3E3E3",
"g c #E7E7E7",
"h c #E9E9E9",
"j c #EEEEEE",
"k c #F3F3F3",
"l c #F6F6F6",
"z c #F8F8F8",
"x c #FFFFFF",
/* pixels */
"xxxxxxxxxxxxxxxxxxxxxxxxxxxxl7lxxxxxxxxxxxxxxxxx",
"xxxxxxxxxxxxxxxxxxxxxxxxxxxxg gxxxxxxxxxxxxxxxxx",
"xxxxxxxxxxxxxxxxxxxxxxxxxxxxg gxxxxxxxxxxxxxxxxx",
"xxxxxxxxxxxxxxxxxxxxxxxxxxxxg gh&>>dxxxxxxxxxxxx",
"xxxxxxxxxxxxxxxxxxxxxxxxxxxxg gf1xg=xxxxxxxxxxxx",
"xxxxxxxxxxxxxxxxxxxxxxxxxxxxg gf<xx*xxxxxxxxxxxx",
"xxxxxxxxxxxxxxxxxxxxxxxxxxxxg gf<xx*xxxxxxxxxxxx",
"xxxxxxxxxxxxxxxxxxxxxxxxxxxxg gf&q<7xxxxxxxxxxxx",
"xxxxxxxxxxxxxxxxxxxxxxxxxxxxg gzyufxxxxxxxxxxxxx",
"xxxxxxxxxxxxxxxxxxxxxxxxxxxxg gxxxxxxxxxxxxxxxxx",
"xxxxxxxxxxxxxxxxxxxxxxxxxxxxg gxxxxxxxxxxxxxxxxx",
"xxxxxxxxxxxxxxxxxxxxxxxxxxxxg gxxxxxxxxxxxxxxxxx",
"xxxxxxxxxxxxxxxxxxxxxxxxxxxxg gxxxxxxxxxxxxxxxxx",
"xxxxxxxxxxxxxxxxxxxxxxxxxxxxg gxxxxxxxxxxxxxxxxx",
"xxxxxxxxxxxxxxxxxxxxxx9kxxxxg gxxxxxxxxxxxxxxxxx",
"xxxxxxxxxxxxxxxxxxxxxl dxxxxg gxxxxxxxxxxxxxxxxx",
"xxxxswfxxxxxxxxxxxxi2k ->>>>; gxxxxxxxxxxxxxxxxx",
"xxx54t-fxxxxxxxxxxxq#j =,,,,,,kxxxxxxxxxxxxxxxxx",
"xxx=xxjjxxxxxxxxxxxq@j ixxxxxxxxxxxxxxxxxxxxxxxx",
"xxl-xq;8xxxxxxxxxxxq@j uxxxxxxxxxxxxxxxxxxxxxxxx",
"xxx=gxu3xxxxxxxxxxxq@j uxxxxxxxxxxxxxxxxxxxxxxxx",
"xxxh,><gxxxxxxxxxxxq@j uxxxxxxxxxxxxxxxxxxxxxxxx",
"xxxxxxxxxxxxxxxxxxxq@j uxxxxxxxxxxxxxxxxxxxxxxxx",
"u>>>>>>>>>>>>>>>>>>%+j ixxxxxxxxxxxxxxxxxxxxxxxx",
"u>>>>>>>>>>>>>>>>>>%+j ixxxxxxxxxxxxxxxxxxxxxxxx",
"xxxxxxxxxxxxxxxxxxxq@j uxdxxxxxxxxxxxxxxxxxxxxxx",
"xxxxxxxxxxxxxxxxxxxq@j ux&yxxxxxxxxxxxxxxxxxxxxx",
"xxxxxxxxxxxxxxxxxxxq@k ux#Xyxxxxxxxxxxxxxxxxxxxx",
"xxxxxxxxxxxxxxxxxxxq@j ux# Xuxxxxxxxxxxxxxxxxxxx",
"xxxxxxxxxxxxxxxxxxxq@j ix#  Xuxxxxxxxxxxxxxxxxxx",
"xxxxxxxxxxxxxxxxxxxq@j =,O   ojxxxxxxxxxxxxxxxxx",
"xxxxxxxxxxxxxxxxxxxi2k ->O  X gxxxxxxxxxxxxxxxxx",
"xxxxxxxxxxxxxxxxxxxxxl dx# oy hxxxxxxxxxxxxxxxxx",
"xxxxxxxxxxxxxxxxxxxxxx9kx#oag gxxxxxxxxxxxxxxxxx",
"xxxxxxxxxxxxxxxxxxxxxxxxx*pxg gxxxxxxxxxxxxxxxxx",
"xxxxxxxxxxxxxxxxxxxxxxxxxjxxg gxxxxxxxxxxxxxxxxx",
"xxxxxxxxxxxxxxxxxxxxxxxxxxxxg gxxxxxxxxxxxxxxxxx",
"xxxxxxxxxxxxxxxxxxxxxxxxxxxxg gxxxxxxxxxxxxxxxxx",
"xxxxxxxxxxxxxxxxxxxxxxxxxxxxg gxxxxxxxxxxxxxxxxx",
"xxxxxxxxxxxxxxxxxxxxxxxxxxxxg gxxxxxxxxxxxxxxxxx",
"xxxxxxxxxxxxxxxxxxxxxxxxxxxxg gl,:2xxxxxxxxxxxxx",
"xxxxxxxxxxxxxxxxxxxxxxxxxxxxg ge8x0fxxxxxxxxxxxx",
"xxxxxxxxxxxxxxxxxxxxxxxxxxxxg gl:=qxxxxxxxxxxxxx",
"xxxxxxxxxxxxxxxxxxxxxxxxxxxxg gpkl2rxxxxxxxxxxxx",
"xxxxxxxxxxxxxxxxxxxxxxxxxxxxg gi:e>axxxxxxxxxxxx",
"xxxxxxxxxxxxxxxxxxxxxxxxxxxxg gxfegxxxxxxxxxxxxx",
"xxxxxxxxxxxxxxxxxxxxxxxxxxxxg gxxxxxxxxxxxxxxxxx",
"xxxxxxxxxxxxxxxxxxxxxxxxxxxxl7lxxxxxxxxxxxxxxxxx"
};
