/* XPM */
static const char *icon_small_xpm[] = {
/* columns rows colors chars-per-pixel */
"16 16 256 2",
"   c #000000",
".  c None",
"X  c #000000",
"o  c #7144F8",
"O  c #000000",
"+  c #000000",
"@  c #04F340",
"#  c #9700E6",
"$  c #04F2E0",
"%  c #000000",
"&  c #04F6E0",
"*  c #970070",
"=  c #67FE60",
"-  c #000000",
";  c #000281",
":  c #000001",
">  c #00000F",
",  c #7203A5",
"<  c #992472",
"1  c #000000",
"2  c #080DCA",
"3  c #04F324",
"4  c #20A484",
"5  c #67FE60",
"6  c #000000",
"7  c #000007",
"8  c #040DB8",
"9  c #000000",
"0  c #04F330",
"q  c #2061D3",
"w  c #270230",
"e  c #000040",
"r  c #04F36C",
"t  c #20A524",
"y  c #20A4F4",
"u  c #21E6EE",
"i  c #000000",
"p  c #000000",
"a  c #407F2C",
"s  c #000001",
"d  c #000000",
"f  c #04F33C",
"g  c #00000F",
"h  c #04F400",
"j  c #220155",
"k  c #05B17A",
"l  c #FFFFFE",
"z  c #20A4F4",
"x  c #206238",
"c  c #080DCA",
"v  c #000007",
"b  c #040DB8",
"n  c #000000",
"m  c #407F2C",
"M  c #BAABCD",
"N  c #000000",
"B  c #000000",
"V  c #407F2C",
"C  c #04F3A8",
"Z  c #04F3C4",
"A  c #270230",
"S  c #20A4F4",
"D  c #04F410",
"F  c #206941",
"G  c #306AB4",
"H  c #306B43",
"J  c #081BF4",
"K  c #000004",
"L  c #04F6A0",
"P  c #04F68C",
"I  c #3089D4",
"U  c #081BF4",
"Y  c #306AB4",
"T  c #306B43",
"R  c #081BF4",
"E  c #000004",
"W  c #04F6C0",
"Q  c #04F6AC",
"!  c #3089D4",
"~  c #081BF4",
"^  c #000004",
"/  c #04F6C0",
"(  c #000000",
")  c #3089E0",
"_  c #04F60C",
"`  c #220155",
"'  c #057C8A",
"]  c #FFFFFE",
"[  c #206901",
"{  c #210AB0",
"}  c #000000",
"|  c #407F2C",
" . c #080DCA",
".. c #000007",
"X. c #040DB8",
"o. c #000000",
"O. c #000000",
"+. c #000000",
"@. c #000007",
"#. c #5861E0",
"$. c #000007",
"%. c #000000",
"&. c #407F2C",
"*. c #000000",
"=. c #407F2C",
"-. c #080DCA",
";. c #000007",
":. c #040DB8",
">. c #000000",
",. c #000001",
"<. c #000000",
"1. c #0ED620",
"2. c #04F63C",
"3. c #5BEC56",
"4. c #5BEC5E",
"5. c #000000",
"6. c #5861E0",
"7. c #04F5C4",
"8. c #5C1A20",
"9. c #000000",
"0. c #5861E0",
"q. c #5BEAF2",
"w. c #5861E0",
"e. c #5B9F3A",
"r. c #000000",
"t. c #7203A5",
"y. c #080DCA",
"u. c #04F4CC",
"i. c #20A484",
"p. c #67FE60",
"a. c #000000",
"s. c #00B029",
"d. c #000000",
"f. c #000000",
"g. c #04F4D8",
"h. c #2061D3",
"j. c #270230",
"k. c #00B029",
"l. c #04F514",
"z. c #20A524",
"x. c #20A4F4",
"c. c #21E096",
"v. c #000000",
"b. c #000000",
"n. c #04F518",
"m. c #305758",
"M. c #30592D",
"N. c #011BF4",
"B. c #85000F",
"V. c #000000",
"C. c #011BF4",
"Z. c #000000",
"A. c #000001",
"S. c #000000",
"D. c #3096DC",
"F. c #3096BE",
"G. c #04F534",
"H. c #000100",
"J. c #0D64A8",
"K. c #42FC88",
"L. c #04F534",
"P. c #000300",
"I. c #000000",
"U. c #FFFFFF",
"Y. c #000000",
"T. c #F84471",
"R. c #000000",
"E. c #000000",
"W. c #40F304",
"Q. c #E60097",
"!. c #E0F204",
"~. c #000000",
"^. c #E0F604",
"/. c #700097",
"(. c #60FE67",
"). c #000000",
"_. c #810200",
"`. c #010000",
"'. c #0F0000",
"]. c #A50372",
"[. c #722499",
"{. c #000000",
"}. c #CA0D08",
"|. c #24F304",
" X c #84A420",
".X c #60FE67",
"XX c #000000",
"oX c #070000",
"OX c #B80D04",
"+X c #000000",
"@X c #30F304",
"#X c #D36120",
"$X c #300227",
"%X c #400000",
"&X c #6CF304",
"*X c #24A520",
"=X c #F4A420",
"-X c #EEE621",
";X c #000000",
":X c #000000",
">X c #2C7F40",
",X c #010000",
"<X c #000000",
"1X c #3CF304",
"2X c #0F0000",
"3X c #00F404",
"4X c #550122",
"5X c #7AB105",
"6X c #FEFFFF",
"7X c #F4A420",
"8X c #386220",
"9X c #CA0D08",
"0X c #070000",
"qX c #B80D04",
"wX c #000000",
"eX c #2C7F40",
"rX c #CDABBA",
"tX c #000000",
"yX c #000000",
"uX c #2C7F40",
"iX c #A8F304",
"pX c #C4F304",
"aX c #300227",
"sX c #F4A420",
"dX c #10F404",
"fX c #416920",
"gX c #016920",
"hX c #92E121",
"jX c #070000",
"kX c #2C7F40",
"lX c #3CF604",
"zX c #240000",
"xX c #010000",
"cX c #000000",
"vX c #000000",
"bX c #700000",
"nX c #FFFFFF",
"mX c #FFFFFF",
"MX c #3071E1",
"NX c #30B8A7",
"BX c #081BF4",
"VX c #000000",
"CX c #000100",
"ZX c #04F6A8",
"AX c #000002",
"SX c #3096DC",
"DX c #3071E1",
"FX c #30B8A7",
"GX c #081BF4",
"HX c #000000",
"JX c #000100",
"KX c #04F6C8",
"LX c #000002",
"PX c #3096DC",
"IX c #3096BE",
"UX c #04F6C4",
/* pixels */
". . . . . . . . . . . . .   . . ",
". . . . . . .   . . . . .   . . ",
". . . . . . .               . . ",
". . . . .   .   . . . . . . . . ",
". . . . .   .   . . . . . . . . ",
". . . . .   .   . . . . . . . . ",
". . . . .   .   . . . . . . . . ",
".           .   . . . . . . . . ",
". . . . .   .   . . . . . . . . ",
". . . . .   .   . . . . . . . . ",
". . . . .   .   . .   . . . . . ",
". . . . .   .   . .     . . . . ",
". . . . . . .               . . ",
". . . . . . .   . .     .   . . ",
". . . . . . . . . .   . .   . . ",
". . . . . . . . . . . . .   . . "
};
